<?xml version="1.0" encoding="UTF-8"?>
<svg id="Layer_1" data-name="Layer 1" xmlns="http://www.w3.org/2000/svg" viewBox="20 110 380 80">
  <defs>
    <style>
      .cls-1 {
        fill: #6ef362;
      }

      .cls-2 {
        fill: #fff;
      }
    </style>
  </defs>
  <g>
    <path class="cls-2" d="M147.82,133.25c5.69,0,10.85,2.35,14.61,6.03,1.14,1.2,1.14,3.21,0,4.29-.6.6-1.34,1-2.21,1-.74,0-1.54-.4-2.14-1-2.55-2.55-6.23-4.22-10.25-4.22-7.97,0-14.47,6.57-14.47,14.61s6.5,14.41,14.47,14.41c4.49,0,8.24-1.94,11.06-5.09v-6.3h-11.06c-1.67,0-3.01-1.41-3.01-3.01,0-1.81,1.34-3.08,3.01-3.08h14.14c1.67,0,3.01,1.34,3.01,3.08v9.45c0,2.01-.4,2.88-1.88,4.29-3.75,4.16-9.25,6.84-15.28,6.84-11.39,0-20.57-9.18-20.57-20.57s9.18-20.71,20.57-20.71Z"/>
    <path class="cls-2" d="M173.57,133.25c1.61,0,2.82,1.34,2.81,2.81v35.65c0,1.47-1.21,2.81-2.81,2.81s-2.75-1.27-2.75-2.81v-35.65c0-1.54,1.21-2.81,2.75-2.81Z"/>
    <path class="cls-2" d="M197.11,143.84c8.44,0,15.28,6.83,15.28,15.28s-6.83,15.41-15.28,15.41-15.34-6.84-15.34-15.41,6.83-15.28,15.34-15.28ZM197.11,149.4c-5.43,0-9.78,4.36-9.78,9.72s4.35,9.78,9.78,9.78,9.65-4.36,9.65-9.78-4.35-9.72-9.65-9.72Z"/>
    <path class="cls-2" d="M217.1,159.11v-23.05c0-1.54,1.27-2.81,2.88-2.81,1.47,0,2.75,1.27,2.75,2.81v12.19c2.28-2.68,5.83-4.42,9.78-4.42,8.44,0,15.28,6.83,15.28,15.28s-6.84,15.41-15.28,15.41-15.41-6.84-15.41-15.41h0ZM222.73,159.11c0,5.43,4.42,9.78,9.78,9.78s9.65-4.36,9.65-9.78-4.36-9.72-9.65-9.72-9.78,4.35-9.78,9.72Z"/>
    <path class="cls-2" d="M251.72,159.11c0-8.44,6.83-15.28,15.34-15.28,8.44,0,15.28,6.83,15.28,15.28v12.6c0,1.47-1.27,2.81-2.88,2.81-1.47,0-2.81-1.34-2.81-2.81v-.6c-2.61,2.14-5.96,3.42-9.58,3.42-8.51,0-15.34-6.84-15.34-15.41ZM267.06,168.9c5.3,0,9.65-4.36,9.65-9.78s-4.36-9.72-9.65-9.72-9.78,4.35-9.78,9.72,4.36,9.78,9.78,9.78Z"/>
    <path class="cls-1" d="M303.23,143.84c8.38,0,15.21,6.83,15.21,15.28,0,8.58-6.84,15.41-15.21,15.41-4.02,0-7.57-1.81-9.78-4.49v11.46c0,1.54-1.27,2.75-2.88,2.75-1.47,0-2.75-1.21-2.75-2.75v-22.38c0-8.44,6.84-15.28,15.41-15.28ZM303.23,149.4c-5.43,0-9.78,4.36-9.78,9.72,0,5.43,4.36,9.78,9.78,9.78s9.65-4.36,9.65-9.78-4.35-9.72-9.65-9.72Z"/>
    <path class="cls-1" d="M322.38,159.11c0-8.44,6.83-15.28,15.34-15.28,8.44,0,15.28,6.83,15.28,15.28v12.6c0,1.47-1.27,2.81-2.88,2.81-1.47,0-2.81-1.34-2.81-2.81v-.6c-2.61,2.14-5.96,3.42-9.58,3.42-8.51,0-15.34-6.84-15.34-15.41ZM337.72,168.9c5.3,0,9.65-4.36,9.65-9.78s-4.36-9.72-9.65-9.72-9.78,4.35-9.78,9.72,4.36,9.78,9.78,9.78Z"/>
    <path class="cls-1" d="M358.59,146.59c0-1.54,1.21-2.75,2.81-2.75,1.54,0,2.81,1.21,2.81,2.75v14.27c0,4.42,3.62,7.98,7.98,7.98s8.04-3.55,8.04-7.98v-14.27c0-1.54,1.21-2.75,2.81-2.75s2.75,1.21,2.75,2.75v14.27c0,7.51-6.1,13.67-13.6,13.67s-13.6-6.16-13.6-13.67v-14.27ZM372.19,183.51c3.48,0,6.5-1.74,8.24-4.49.61-.87,1.48-1.34,2.41-1.34.47,0,.94.13,1.41.4,1.41.94,1.74,2.61.94,3.95-2.75,4.29-7.51,7.1-13,7.1s-10.19-2.81-12.93-7.1c-.87-1.34-.4-3.02.87-3.95.47-.27.94-.4,1.41-.4.94,0,1.88.47,2.48,1.34,1.67,2.75,4.76,4.49,8.17,4.49Z"/>
  </g>
  <g>
    <path class="cls-1" d="M109.12,143.91c-2.29-8.28-7.23-15.16-13.61-19.94-6.39-4.79-14.25-7.5-22.47-7.5-3.32,0-6.69.44-10.04,1.37-4.96,1.37-9.42,3.69-13.23,6.71-2.11,1.67-2.46,4.72-.8,6.83,1.67,2.11,4.72,2.46,6.83.8h0c2.82-2.23,6.1-3.94,9.79-4.96,2.49-.69,4.98-1.02,7.44-1.02,6.06,0,11.9,2.01,16.64,5.56,4.74,3.55,8.36,8.61,10.07,14.76.69,2.49,1.02,4.99,1.02,7.45,0,.71-.03,1.42-.08,2.12-.21,2.68,1.8,5.01,4.48,5.22,2.68.21,5.01-1.8,5.22-4.48.07-.95.11-1.9.11-2.86,0-3.32-.44-6.7-1.37-10.05Z"/>
    <path class="cls-2" d="M45.17,142.09c1.28,0,2.53-.52,3.44-1.42.91-.91,1.42-2.16,1.42-3.44s-.52-2.53-1.42-3.44-2.16-1.42-3.44-1.42-2.53.52-3.44,1.42-1.42,2.16-1.42,3.44.52,2.53,1.42,3.44c.91.91,2.16,1.42,3.44,1.42Z"/>
    <path class="cls-1" d="M100.44,178.99c.04-.09.07-.18.1-.27.02-.06.05-.13.07-.19.02-.07.04-.15.06-.22.02-.08.04-.16.06-.25.01-.06.02-.12.03-.18.02-.1.03-.19.04-.29,0-.05,0-.11.01-.16,0-.1.02-.21.02-.31,0-.06,0-.12,0-.18,0-.09,0-.19-.01-.28,0-.07-.02-.15-.03-.22-.01-.08-.02-.16-.03-.23-.02-.09-.04-.18-.06-.27-.01-.06-.03-.12-.04-.18-.03-.1-.06-.19-.09-.28-.02-.05-.03-.11-.05-.16-.03-.09-.08-.17-.11-.26-.03-.06-.05-.12-.08-.17-.04-.07-.08-.14-.12-.21-.04-.07-.08-.14-.12-.21-.04-.06-.08-.11-.11-.16-.06-.08-.11-.16-.17-.24-.03-.04-.07-.08-.11-.13-.07-.08-.14-.17-.22-.24-.01-.01-.02-.02-.03-.04-.03-.03-.06-.05-.09-.08-.07-.07-.15-.14-.23-.21-.06-.05-.12-.1-.18-.14-.06-.05-.13-.1-.19-.14-.08-.06-.17-.11-.25-.16-.04-.02-.07-.05-.11-.07h0l-19.53-11.05h0c-1.05-.6-1.85-1.43-2.42-2.41-.56-.98-.86-2.12-.86-3.25,0-1.08.26-2.15.83-3.15,1.32-2.34.5-5.3-1.83-6.63s-5.3-.5-6.63,1.83c-1.42,2.5-2.1,5.25-2.1,7.95,0,2.83.74,5.6,2.13,8.06,1.39,2.45,3.47,4.59,6.09,6.07h0s13.2,7.46,13.2,7.46c-2.08,1.24-4.35,2.23-6.81,2.91-2.49.69-4.98,1.02-7.43,1.02-6.06,0-11.89-2.01-16.63-5.56-4.74-3.55-8.36-8.61-10.07-14.77-.69-2.49-1.02-4.99-1.02-7.44,0-1.68.16-3.35.46-4.98.49-2.64-1.26-5.18-3.9-5.66-2.64-.49-5.18,1.26-5.66,3.9h0c-.41,2.2-.62,4.46-.62,6.74,0,3.32.45,6.7,1.37,10.04,2.29,8.28,7.23,15.17,13.61,19.95,6.39,4.79,14.25,7.5,22.46,7.5,3.32,0,6.69-.44,10.03-1.37,6.31-1.75,11.83-5.04,16.2-9.34.04-.03.07-.07.11-.1.02-.02.03-.03.05-.05.03-.03.06-.06.09-.09.07-.07.14-.15.2-.22.05-.06.1-.12.14-.18.05-.06.1-.13.14-.19.06-.08.11-.17.16-.25.02-.04.05-.07.07-.11,0-.01.01-.03.02-.04.05-.09.1-.19.14-.29.02-.05.05-.1.07-.16Z"/>
  </g>
</svg>