<?xml version="1.0" encoding="UTF-8"?>
<svg id="Layer_1" data-name="Layer 1" xmlns="http://www.w3.org/2000/svg" viewBox="0 90 421.35 110">
  <defs>
    <style>
      .cls-1 {
        fill: #025b42;
      }

      .cls-2 {
        fill: #6ef362;
      }
    </style>
  </defs>
  <g>
    <path class="cls-1" d="M143.89,116.88c5.28,0,10.06,2.17,13.54,5.59,1.06,1.12,1.06,2.98,0,3.97-.56.56-1.24.93-2.05.93-.68,0-1.43-.37-1.99-.93-2.36-2.36-5.77-3.91-9.5-3.91-7.39,0-13.41,6.09-13.41,13.54s6.02,13.35,13.41,13.35c4.16,0,7.64-1.8,10.25-4.72v-5.84h-10.25c-1.55,0-2.79-1.3-2.79-2.79,0-1.68,1.24-2.86,2.79-2.86h13.11c1.55,0,2.79,1.24,2.79,2.86v8.75c0,1.86-.37,2.67-1.74,3.97-3.48,3.85-8.57,6.34-14.16,6.34-10.56,0-19.07-8.51-19.07-19.06s8.51-19.19,19.07-19.19Z"/>
    <path class="cls-1" d="M167.75,116.88c1.49,0,2.61,1.24,2.61,2.61v33.04c0,1.36-1.12,2.61-2.61,2.61s-2.55-1.18-2.55-2.61v-33.04c0-1.43,1.12-2.61,2.55-2.61Z"/>
    <path class="cls-1" d="M189.58,126.69c7.83,0,14.16,6.33,14.16,14.16s-6.33,14.28-14.16,14.28-14.22-6.34-14.22-14.28,6.33-14.16,14.22-14.16ZM189.58,131.85c-5.03,0-9.07,4.04-9.07,9s4.04,9.07,9.07,9.07,8.94-4.04,8.94-9.07-4.04-9-8.94-9Z"/>
    <path class="cls-1" d="M208.1,140.85v-21.37c0-1.43,1.18-2.61,2.67-2.61,1.37,0,2.55,1.18,2.55,2.61v11.3c2.11-2.48,5.4-4.1,9.07-4.1,7.83,0,14.16,6.33,14.16,14.16s-6.34,14.28-14.16,14.28-14.28-6.34-14.28-14.28h0ZM213.32,140.85c0,5.03,4.1,9.07,9.07,9.07s8.94-4.04,8.94-9.07-4.04-9-8.94-9-9.07,4.04-9.07,9Z"/>
    <path class="cls-1" d="M240.19,140.85c0-7.83,6.33-14.16,14.22-14.16,7.83,0,14.16,6.33,14.16,14.16v11.68c0,1.36-1.18,2.61-2.67,2.61-1.36,0-2.61-1.24-2.61-2.61v-.56c-2.42,1.98-5.53,3.17-8.88,3.17-7.89,0-14.22-6.34-14.22-14.28ZM254.41,149.92c4.91,0,8.94-4.04,8.94-9.07s-4.04-9-8.94-9-9.07,4.04-9.07,9,4.04,9.07,9.07,9.07Z"/>
    <path class="cls-2" d="M287.92,126.69c7.76,0,14.1,6.33,14.1,14.16,0,7.95-6.34,14.28-14.1,14.28-3.73,0-7.02-1.68-9.07-4.16v10.62c0,1.43-1.18,2.55-2.67,2.55-1.37,0-2.55-1.12-2.55-2.55v-20.74c0-7.83,6.34-14.16,14.29-14.16ZM287.92,131.85c-5.03,0-9.07,4.04-9.07,9,0,5.03,4.04,9.07,9.07,9.07s8.94-4.04,8.94-9.07-4.04-9-8.94-9Z"/>
    <path class="cls-2" d="M305.67,140.85c0-7.83,6.33-14.16,14.22-14.16,7.83,0,14.16,6.33,14.16,14.16v11.68c0,1.36-1.18,2.61-2.67,2.61-1.37,0-2.61-1.24-2.61-2.61v-.56c-2.42,1.98-5.53,3.17-8.88,3.17-7.89,0-14.22-6.34-14.22-14.28ZM319.89,149.92c4.91,0,8.94-4.04,8.94-9.07s-4.04-9-8.94-9-9.07,4.04-9.07,9,4.04,9.07,9.07,9.07Z"/>
    <path class="cls-2" d="M339.24,129.24c0-1.43,1.12-2.55,2.61-2.55,1.43,0,2.61,1.12,2.61,2.55v13.23c0,4.1,3.35,7.39,7.39,7.39s7.45-3.29,7.45-7.39v-13.23c0-1.43,1.12-2.55,2.61-2.55s2.55,1.12,2.55,2.55v13.23c0,6.96-5.65,12.67-12.61,12.67s-12.61-5.71-12.61-12.67v-13.23ZM351.84,163.46c3.23,0,6.02-1.62,7.64-4.16.56-.81,1.37-1.24,2.24-1.24.43,0,.87.12,1.3.37,1.3.87,1.61,2.42.87,3.67-2.55,3.98-6.96,6.58-12.05,6.58s-9.44-2.61-11.99-6.58c-.81-1.24-.37-2.8.81-3.67.43-.25.87-.37,1.3-.37.87,0,1.74.43,2.3,1.24,1.55,2.55,4.41,4.16,7.58,4.16Z"/>
  </g>
  <g>
    <path class="cls-2" d="M108.02,126.76c-2.13-7.67-6.7-14.05-12.62-18.49-5.92-4.44-13.21-6.95-20.82-6.95-3.08,0-6.2.41-9.3,1.27-4.59,1.27-8.73,3.42-12.26,6.21-1.95,1.54-2.28,4.38-.74,6.33,1.54,1.95,4.38,2.28,6.33.74h0c2.61-2.06,5.65-3.65,9.08-4.6,2.31-.64,4.62-.94,6.89-.94,5.62,0,11.03,1.86,15.42,5.15,4.39,3.29,7.75,7.98,9.34,13.68.64,2.31.94,4.63.94,6.9,0,.66-.03,1.31-.08,1.96-.19,2.48,1.67,4.65,4.15,4.84,2.48.19,4.65-1.67,4.84-4.15.07-.88.1-1.76.1-2.65,0-3.08-.41-6.21-1.27-9.31Z"/>
    <path class="cls-1" d="M48.74,125.08c1.19,0,2.35-.48,3.19-1.32.84-.84,1.32-2,1.32-3.19s-.48-2.35-1.32-3.19-2-1.32-3.19-1.32-2.35.48-3.19,1.32-1.32,2-1.32,3.19.48,2.35,1.32,3.19c.84.84,2,1.32,3.19,1.32Z"/>
    <path class="cls-2" d="M99.97,159.28c.03-.08.06-.16.09-.25.02-.06.04-.12.06-.18.02-.07.04-.14.06-.21.02-.08.04-.15.06-.23.01-.05.02-.11.03-.17.01-.09.03-.18.04-.27,0-.05,0-.1,0-.15,0-.1.01-.19.01-.29,0-.05,0-.11,0-.16,0-.09,0-.18-.01-.26,0-.07-.02-.14-.03-.21,0-.07-.02-.14-.03-.22-.02-.08-.04-.17-.06-.25-.01-.06-.02-.11-.04-.17-.02-.09-.06-.18-.09-.26-.02-.05-.03-.1-.05-.15-.03-.08-.07-.16-.11-.24-.02-.05-.05-.11-.07-.16-.03-.07-.07-.13-.11-.2-.04-.06-.07-.13-.11-.19-.03-.05-.07-.1-.11-.15-.05-.07-.1-.15-.16-.22-.03-.04-.07-.08-.1-.12-.07-.08-.13-.15-.2-.23-.01-.01-.02-.02-.03-.03-.03-.03-.06-.05-.08-.08-.07-.07-.14-.13-.21-.19-.05-.05-.11-.09-.17-.13-.06-.05-.12-.09-.18-.13-.08-.05-.15-.1-.23-.15-.04-.02-.07-.05-.1-.07h0l-18.1-10.24h0c-.98-.55-1.72-1.32-2.24-2.24-.52-.91-.8-1.96-.8-3.01,0-1,.24-1.99.77-2.92,1.23-2.17.47-4.92-1.7-6.14s-4.92-.47-6.14,1.7c-1.31,2.32-1.94,4.87-1.94,7.37,0,2.62.68,5.19,1.98,7.47,1.29,2.27,3.21,4.26,5.65,5.63h0s12.24,6.92,12.24,6.92c-1.93,1.15-4.03,2.07-6.31,2.7-2.31.64-4.62.94-6.89.94-5.62,0-11.02-1.86-15.41-5.15-4.39-3.29-7.75-7.98-9.34-13.68-.64-2.31-.94-4.62-.94-6.9,0-1.56.14-3.11.42-4.62.45-2.45-1.17-4.8-3.62-5.25-2.45-.45-4.8,1.17-5.25,3.62h0c-.38,2.04-.57,4.13-.57,6.25,0,3.08.41,6.21,1.27,9.31,2.13,7.67,6.7,14.06,12.62,18.49,5.92,4.44,13.2,6.95,20.82,6.95,3.08,0,6.2-.41,9.3-1.27,5.85-1.62,10.96-4.67,15.02-8.66.03-.03.07-.06.1-.09.01-.01.03-.03.05-.04.03-.03.05-.06.08-.09.06-.07.13-.14.19-.21.05-.06.09-.11.13-.17.04-.06.09-.12.13-.18.05-.08.1-.16.15-.23.02-.03.04-.07.06-.1,0-.01.01-.03.02-.04.05-.09.09-.18.13-.27.02-.05.05-.1.07-.14Z"/>
  </g>
</svg>