<?xml version="1.0" encoding="UTF-8"?>
<svg id="Layer_1" data-name="Layer 1" xmlns="http://www.w3.org/2000/svg" viewBox="0 0 420 228">
  <defs>
    <style>
      .cls-1 {
        fill: #002a66;
      }

      .cls-2 {
        fill: #579cff;
      }

      .cls-3 {
        fill: #7af46d;
      }
    </style>
  </defs>
  <g>
    <path class="cls-2" d="M98.18,103.92c-2.31-8.33-7.27-15.26-13.7-20.07-6.43-4.82-14.34-7.55-22.61-7.55-3.34,0-6.74.45-10.1,1.38-4.99,1.38-9.48,3.72-13.31,6.75-2.12,1.68-2.48,4.75-.8,6.87,1.68,2.12,4.76,2.48,6.88.8h0c2.83-2.24,6.14-3.96,9.86-4.99,2.51-.7,5.02-1.02,7.48-1.03,6.1,0,11.97,2.02,16.74,5.6,4.77,3.58,8.42,8.67,10.14,14.86.7,2.51,1.03,5.02,1.03,7.5,0,.71-.03,1.42-.08,2.13-.21,2.7,1.81,5.05,4.51,5.25,2.7.21,5.05-1.81,5.25-4.51.07-.95.11-1.91.11-2.88,0-3.34-.45-6.75-1.38-10.12Z"/>
    <path class="cls-3" d="M33.8,102.09c1.29,0,2.55-.52,3.46-1.43.91-.91,1.43-2.17,1.43-3.46s-.52-2.55-1.43-3.46-2.17-1.43-3.46-1.43-2.55.52-3.46,1.43-1.43,2.17-1.43,3.46.52,2.55,1.43,3.46c.91.91,2.17,1.43,3.46,1.43Z"/>
    <path class="cls-2" d="M89.44,139.23c.04-.09.07-.18.1-.27.02-.07.05-.13.07-.2.02-.07.04-.15.06-.22.02-.08.04-.17.06-.25.01-.06.02-.12.03-.18.02-.1.03-.2.04-.29,0-.05,0-.11.01-.16,0-.1.02-.21.02-.31,0-.06,0-.12,0-.18,0-.1,0-.19-.01-.29,0-.08-.02-.15-.03-.22-.01-.08-.02-.16-.03-.23-.02-.09-.04-.18-.06-.27-.01-.06-.03-.12-.04-.18-.03-.1-.06-.19-.09-.29-.02-.05-.03-.11-.06-.16-.03-.09-.08-.18-.12-.26-.03-.06-.05-.12-.08-.17-.04-.07-.08-.14-.12-.22-.04-.07-.08-.14-.12-.21-.04-.06-.08-.11-.11-.16-.06-.08-.11-.16-.17-.24-.03-.04-.07-.08-.11-.13-.07-.08-.14-.17-.22-.25-.01-.01-.02-.02-.03-.04-.03-.03-.06-.06-.09-.08-.07-.07-.15-.14-.23-.21-.06-.05-.12-.1-.18-.14-.06-.05-.13-.1-.19-.14-.08-.06-.17-.11-.25-.16-.04-.02-.07-.05-.11-.07h0l-19.66-11.12h0c-1.06-.6-1.87-1.44-2.43-2.43-.56-.99-.87-2.13-.87-3.27,0-1.09.27-2.16.84-3.17,1.33-2.35.51-5.34-1.84-6.67-2.35-1.33-5.34-.51-6.67,1.84-1.43,2.52-2.11,5.29-2.11,8,0,2.85.74,5.64,2.15,8.11,1.4,2.47,3.49,4.62,6.13,6.11h0s13.29,7.51,13.29,7.51c-2.09,1.25-4.38,2.24-6.85,2.93-2.51.7-5.02,1.02-7.48,1.02-6.1,0-11.97-2.02-16.74-5.6-4.77-3.58-8.42-8.67-10.14-14.86-.7-2.51-1.03-5.02-1.03-7.49,0-1.7.16-3.37.46-5.01.49-2.66-1.27-5.21-3.93-5.7-2.66-.49-5.21,1.27-5.7,3.93h0c-.41,2.22-.62,4.49-.62,6.79,0,3.34.45,6.74,1.38,10.11,2.31,8.33,7.27,15.27,13.7,20.08,6.43,4.82,14.34,7.55,22.61,7.55,3.34,0,6.74-.45,10.1-1.38,6.36-1.76,11.9-5.07,16.31-9.4.04-.03.07-.07.11-.1.02-.02.03-.03.05-.05.03-.03.06-.06.09-.09.07-.07.14-.15.21-.23.05-.06.1-.12.15-.18.05-.06.1-.13.14-.19.06-.08.11-.17.16-.26.02-.04.05-.07.07-.11,0-.01.01-.03.02-.04.05-.1.1-.19.14-.29.02-.05.05-.1.07-.16Z"/>
  </g>
  <g>
    <path class="cls-1" d="M117.54,110.06c4.56,0,8.69,1.88,11.7,4.83.91.96.91,2.58,0,3.43-.48.48-1.07.8-1.77.8-.59,0-1.23-.32-1.72-.8-2.04-2.04-4.99-3.38-8.21-3.38-6.39,0-11.59,5.26-11.59,11.7s5.2,11.54,11.59,11.54c3.6,0,6.6-1.56,8.85-4.08v-5.04h-8.85c-1.34,0-2.41-1.13-2.41-2.41,0-1.45,1.07-2.47,2.41-2.47h11.33c1.34,0,2.41,1.07,2.41,2.47v7.56c0,1.61-.32,2.31-1.5,3.43-3,3.33-7.41,5.48-12.24,5.48-9.12,0-16.48-7.35-16.48-16.47s7.35-16.58,16.48-16.58Z"/>
    <path class="cls-1" d="M138.16,110.06c1.29,0,2.25,1.07,2.25,2.25v28.55c0,1.18-.97,2.25-2.25,2.25s-2.2-1.02-2.2-2.25v-28.55c0-1.23.97-2.25,2.2-2.25Z"/>
    <path class="cls-1" d="M157.02,118.54c6.76,0,12.24,5.47,12.24,12.24s-5.47,12.34-12.24,12.34-12.29-5.48-12.29-12.34,5.47-12.24,12.29-12.24ZM157.02,123c-4.35,0-7.83,3.49-7.83,7.78s3.49,7.84,7.83,7.84,7.73-3.49,7.73-7.84-3.49-7.78-7.73-7.78Z"/>
    <path class="cls-1" d="M173.02,130.78v-18.46c0-1.23,1.02-2.25,2.31-2.25,1.18,0,2.2,1.02,2.2,2.25v9.77c1.83-2.15,4.67-3.54,7.84-3.54,6.76,0,12.24,5.47,12.24,12.24s-5.48,12.34-12.24,12.34-12.34-5.48-12.34-12.34h0ZM177.53,130.78c0,4.35,3.54,7.84,7.84,7.84s7.73-3.49,7.73-7.84-3.49-7.78-7.73-7.78-7.84,3.49-7.84,7.78Z"/>
    <path class="cls-1" d="M200.75,130.78c0-6.76,5.47-12.24,12.29-12.23,6.76,0,12.24,5.47,12.24,12.24v10.09c0,1.18-1.02,2.25-2.31,2.25-1.18,0-2.25-1.07-2.25-2.25v-.48c-2.09,1.72-4.78,2.74-7.68,2.74-6.82,0-12.29-5.48-12.29-12.34ZM213.03,138.61c4.24,0,7.73-3.49,7.73-7.84s-3.49-7.78-7.73-7.78-7.84,3.49-7.84,7.78,3.49,7.84,7.84,7.84Z"/>
    <path class="cls-2" d="M232.41,111.13c1.5,0,2.68,1.18,2.68,2.63s-1.18,2.68-2.68,2.68-2.58-1.18-2.58-2.68,1.13-2.63,2.58-2.63ZM232.41,118.54c1.34,0,2.31,1.02,2.31,2.25v20.07c0,1.18-.97,2.25-2.31,2.25-1.18,0-2.2-1.07-2.2-2.25v-20.07c0-1.23,1.02-2.25,2.2-2.25Z"/>
    <path class="cls-2" d="M250.69,118.54c5.96,0,10.9,4.88,10.89,10.89v11.43c0,1.23-1.02,2.25-2.25,2.25s-2.25-1.07-2.25-2.25v-11.43c0-3.59-2.9-6.44-6.39-6.44s-6.44,2.84-6.44,6.44v11.43c0,1.23-1.02,2.25-2.25,2.25s-2.25-1.07-2.25-2.25v-11.43c0-6.01,4.94-10.89,10.95-10.89Z"/>
    <path class="cls-2" d="M264.13,121.76c-.59-1.18-.11-2.47,1.02-3,.32-.16.64-.21,1.02-.21.81,0,1.56.43,1.93,1.18l7.67,16.21,7.67-16.21c.38-.75,1.13-1.18,1.99-1.18.32,0,.7.05,1.02.21,1.08.54,1.56,1.83,1.02,3l-9.66,20.12c-.38.8-1.18,1.23-2.04,1.23-.8,0-1.66-.43-2.04-1.23l-9.61-20.12Z"/>
    <path class="cls-2" d="M301.87,118.54c6.76,0,12.24,5.47,12.24,12.24s-5.47,12.34-12.24,12.34-12.29-5.48-12.29-12.34,5.47-12.24,12.29-12.24ZM301.87,123c-4.35,0-7.83,3.49-7.83,7.78s3.49,7.84,7.83,7.84,7.73-3.49,7.73-7.84-3.49-7.78-7.73-7.78Z"/>
    <path class="cls-2" d="M320.63,111.13c1.5,0,2.68,1.18,2.68,2.63s-1.18,2.68-2.68,2.68-2.58-1.18-2.58-2.68,1.13-2.63,2.58-2.63ZM320.63,118.54c1.34,0,2.31,1.02,2.31,2.25v20.07c0,1.18-.97,2.25-2.31,2.25-1.18,0-2.2-1.07-2.2-2.25v-20.07c0-1.23,1.02-2.25,2.2-2.25Z"/>
    <path class="cls-2" d="M327.25,130.78c0-6.76,5.47-12.24,12.24-12.23,3.43,0,6.44,1.34,8.69,3.54.91.86.91,2.31,0,3.22-.43.38-.97.64-1.56.64s-1.18-.27-1.61-.7c-1.4-1.45-3.38-2.25-5.53-2.25-4.24,0-7.78,3.49-7.78,7.78s3.54,7.84,7.78,7.84c2.2,0,4.13-.86,5.53-2.25.48-.48,1.07-.64,1.61-.64.59,0,1.13.16,1.56.64.91.81.91,2.26,0,3.17-2.25,2.2-5.26,3.6-8.69,3.6-6.76,0-12.24-5.48-12.24-12.34Z"/>
    <path class="cls-2" d="M364.35,118.6c6.23,0,11.33,4.67,12.08,10.63.38,1.88-.27,3.22-2.63,3.22h-16.96c.64,3.49,3.7,6.17,7.51,6.17,2.09,0,4.02-.86,5.48-2.25.43-.48,1.02-.64,1.61-.64.54,0,1.13.16,1.56.64.86.81.86,2.26,0,3.17-2.2,2.2-5.31,3.6-8.64,3.6-6.87,0-12.34-5.48-12.34-12.34s5.48-12.18,12.34-12.18ZM364.35,123.05c-3.81,0-6.87,2.68-7.51,6.17h14.97c-.7-3.49-3.76-6.17-7.46-6.17Z"/>
  </g>
</svg>