<?xml version="1.0" encoding="UTF-8"?>
<svg id="Layer_1" data-name="Layer 1" xmlns="http://www.w3.org/2000/svg" viewBox="0 0 420 228">
  <defs>
    <style>
      .cls-1 {
        fill: #ffb522;
      }

      .cls-2 {
        fill: #bc3419;
      }
    </style>
  </defs>
  <g>
    <path class="cls-1" d="M148.59,98.3c-2.31-8.33-7.27-15.26-13.7-20.07-6.43-4.82-14.34-7.55-22.61-7.55-3.34,0-6.74.45-10.1,1.38-4.99,1.38-9.48,3.72-13.31,6.75-2.12,1.68-2.48,4.75-.8,6.87,1.68,2.12,4.76,2.48,6.88.8h0c2.83-2.24,6.14-3.96,9.86-4.99,2.51-.7,5.02-1.02,7.48-1.03,6.1,0,11.97,2.02,16.74,5.6,4.77,3.58,8.42,8.67,10.14,14.86.7,2.51,1.03,5.02,1.03,7.5,0,.71-.03,1.42-.08,2.13-.21,2.7,1.81,5.05,4.51,5.25,2.7.21,5.05-1.81,5.25-4.51.07-.95.11-1.91.11-2.88,0-3.34-.45-6.75-1.38-10.12Z"/>
    <path class="cls-2" d="M84.22,96.47c1.29,0,2.55-.52,3.46-1.43.91-.91,1.43-2.17,1.43-3.46s-.52-2.55-1.43-3.46-2.17-1.43-3.46-1.43-2.55.52-3.46,1.43-1.43,2.17-1.43,3.46.52,2.55,1.43,3.46c.91.91,2.17,1.43,3.46,1.43Z"/>
    <path class="cls-1" d="M139.86,133.61c.04-.09.07-.18.1-.27.02-.07.05-.13.07-.2.02-.07.04-.15.06-.22.02-.08.04-.17.06-.25.01-.06.02-.12.03-.18.02-.1.03-.2.04-.29,0-.05,0-.11.01-.16,0-.1.02-.21.02-.31,0-.06,0-.12,0-.18,0-.1,0-.19-.01-.29,0-.08-.02-.15-.03-.22-.01-.08-.02-.16-.03-.23-.02-.09-.04-.18-.06-.27-.01-.06-.03-.12-.04-.18-.03-.1-.06-.19-.09-.29-.02-.05-.03-.11-.06-.16-.03-.09-.08-.18-.12-.26-.03-.06-.05-.12-.08-.17-.04-.07-.08-.14-.12-.22-.04-.07-.08-.14-.12-.21-.04-.06-.08-.11-.11-.16-.06-.08-.11-.16-.17-.24-.03-.04-.07-.08-.11-.13-.07-.08-.14-.17-.22-.25-.01-.01-.02-.02-.03-.04-.03-.03-.06-.06-.09-.08-.07-.07-.15-.14-.23-.21-.06-.05-.12-.1-.18-.14-.06-.05-.13-.1-.19-.14-.08-.06-.17-.11-.25-.16-.04-.02-.07-.05-.11-.07h0l-19.66-11.12h0c-1.06-.6-1.87-1.44-2.43-2.43-.56-.99-.87-2.13-.87-3.27,0-1.09.27-2.16.84-3.17,1.33-2.35.51-5.34-1.84-6.67-2.35-1.33-5.34-.51-6.67,1.84-1.43,2.52-2.11,5.29-2.11,8,0,2.85.74,5.64,2.15,8.11,1.4,2.47,3.49,4.62,6.13,6.11h0s13.29,7.51,13.29,7.51c-2.09,1.25-4.38,2.24-6.85,2.93-2.51.7-5.02,1.02-7.48,1.02-6.1,0-11.97-2.02-16.74-5.6-4.77-3.58-8.42-8.67-10.14-14.86-.7-2.51-1.03-5.02-1.03-7.49,0-1.7.16-3.37.46-5.01.49-2.66-1.27-5.21-3.93-5.7-2.66-.49-5.21,1.27-5.7,3.93h0c-.41,2.22-.62,4.49-.62,6.79,0,3.34.45,6.74,1.38,10.11,2.31,8.33,7.27,15.27,13.7,20.08,6.43,4.82,14.34,7.55,22.61,7.55,3.34,0,6.74-.45,10.1-1.38,6.36-1.76,11.9-5.07,16.31-9.4.04-.03.07-.07.11-.1.02-.02.03-.03.05-.05.03-.03.06-.06.09-.09.07-.07.14-.15.21-.23.05-.06.1-.12.15-.18.05-.06.1-.13.14-.19.06-.08.11-.17.16-.26.02-.04.05-.07.07-.11,0-.01.01-.03.02-.04.05-.1.1-.19.14-.29.02-.05.05-.1.07-.16Z"/>
  </g>
  <g>
    <path class="cls-2" d="M171.54,106.12c4.32,0,8.23,1.78,11.07,4.57.86.91.86,2.44,0,3.25-.46.46-1.02.76-1.68.76-.56,0-1.17-.3-1.62-.76-1.93-1.93-4.72-3.2-7.77-3.2-6.04,0-10.97,4.98-10.97,11.07s4.92,10.92,10.97,10.92c3.4,0,6.25-1.47,8.38-3.86v-4.77h-8.38c-1.27,0-2.28-1.07-2.28-2.28,0-1.37,1.02-2.34,2.28-2.34h10.72c1.27,0,2.28,1.02,2.28,2.34v7.16c0,1.52-.3,2.18-1.42,3.25-2.84,3.15-7.01,5.18-11.58,5.18-8.63,0-15.59-6.96-15.59-15.59s6.96-15.69,15.59-15.69Z"/>
    <path class="cls-2" d="M191.05,106.12c1.22,0,2.13,1.02,2.13,2.13v27.02c0,1.12-.91,2.13-2.13,2.13s-2.08-.97-2.08-2.13v-27.02c0-1.17.92-2.13,2.08-2.13Z"/>
    <path class="cls-2" d="M208.89,114.14c6.4,0,11.58,5.18,11.58,11.58s-5.18,11.68-11.58,11.68-11.63-5.18-11.63-11.68,5.18-11.58,11.63-11.58ZM208.89,118.36c-4.11,0-7.41,3.3-7.41,7.36s3.3,7.42,7.41,7.42,7.31-3.3,7.31-7.42-3.3-7.36-7.31-7.36Z"/>
    <path class="cls-2" d="M224.03,125.72v-17.47c0-1.17.97-2.13,2.18-2.13,1.12,0,2.08.97,2.08,2.13v9.24c1.73-2.03,4.42-3.35,7.42-3.35,6.4,0,11.58,5.18,11.58,11.58s-5.18,11.68-11.58,11.68-11.68-5.18-11.68-11.68h0ZM228.3,125.72c0,4.11,3.35,7.42,7.42,7.42s7.31-3.3,7.31-7.42-3.3-7.36-7.31-7.36-7.42,3.3-7.42,7.36Z"/>
    <path class="cls-2" d="M250.26,125.72c0-6.4,5.18-11.58,11.63-11.58,6.4,0,11.58,5.18,11.58,11.58v9.55c0,1.12-.97,2.13-2.18,2.13-1.12,0-2.13-1.02-2.13-2.13v-.46c-1.98,1.62-4.52,2.59-7.26,2.59-6.45,0-11.63-5.18-11.63-11.68ZM261.89,133.14c4.01,0,7.31-3.3,7.31-7.42s-3.3-7.36-7.31-7.36-7.42,3.3-7.42,7.36,3.3,7.42,7.42,7.42Z"/>
    <path class="cls-1" d="M288.7,114.14c6.35,0,11.53,5.18,11.53,11.58s-5.18,11.68-11.53,11.68-11.68-5.18-11.68-11.68,5.18-11.58,11.68-11.58ZM288.7,144.21c2.54,0,4.83-1.32,6.14-3.4.51-.66,1.17-1.02,1.88-1.02.35,0,.76.1,1.07.3,1.02.71,1.27,1.98.66,3-2.03,3.25-5.69,5.38-9.75,5.38s-7.77-2.13-9.9-5.38c-.61-1.02-.3-2.29.66-3,.35-.2.71-.3,1.07-.3.76,0,1.47.35,1.88,1.02,1.32,2.08,3.66,3.4,6.3,3.4ZM288.7,118.31c-4.11,0-7.41,3.35-7.41,7.42s3.3,7.36,7.41,7.36,7.31-3.25,7.31-7.36-3.3-7.42-7.31-7.42Z"/>
    <path class="cls-1" d="M306.41,107.13c1.42,0,2.54,1.12,2.54,2.49s-1.12,2.54-2.54,2.54-2.44-1.12-2.44-2.54,1.07-2.49,2.44-2.49ZM306.41,114.14c1.27,0,2.18.97,2.18,2.13v18.99c0,1.12-.92,2.13-2.18,2.13-1.12,0-2.08-1.02-2.08-2.13v-18.99c0-1.17.97-2.13,2.08-2.13Z"/>
    <path class="cls-1" d="M326.14,106.12c1.17,0,2.13.97,2.13,2.13s-.96,2.13-2.13,2.13h-2.59c-1.78,0-3.25,1.42-3.25,3.2v.56h5.84c1.17,0,2.13.91,2.13,2.08s-.96,2.13-2.13,2.13h-5.84v16.91c0,1.12-.92,2.13-2.13,2.13-1.12,0-2.08-.97-2.08-2.13v-16.91h-2.13c-1.17,0-2.13-.97-2.13-2.13s1.01-2.08,2.13-2.08h2.13v-.56c0-4.11,3.35-7.47,7.47-7.47h2.59Z"/>
    <path class="cls-1" d="M337.33,106.12c1.22,0,2.23,1.02,2.24,2.13v5.89h3.71c1.17,0,2.18.96,2.18,2.13s-1.02,2.08-2.18,2.08h-3.71v16.91c0,1.12-1.02,2.13-2.24,2.13-1.07,0-2.08-.97-2.08-2.13v-16.91h-3.81c-1.12,0-2.08-.97-2.08-2.08s.96-2.13,2.08-2.13h3.81v-5.89c0-1.17,1.02-2.13,2.08-2.13Z"/>
  </g>
</svg>